<svg width="91" height="28" viewBox="0 0 91 28" fill="none" xmlns="http://www.w3.org/2000/svg">
<g clip-path="url(#clip0)">
<path d="M26.2997 19.8443C26.1585 19.5031 26.0262 19.1443 25.885 18.8381L25.2321 17.3768L25.2056 17.3506C23.2644 13.1506 21.1909 8.88058 18.9938 4.68058L18.9056 4.50558C18.685 4.09433 18.4644 3.63933 18.235 3.21933C17.9527 2.72058 17.6791 2.18683 17.2291 1.67933C16.7905 1.14832 16.2385 0.720494 15.6128 0.426728C14.9872 0.132961 14.3037 -0.0194206 13.6115 -0.0194206C12.9193 -0.0194206 12.2357 0.132961 11.6101 0.426728C10.9845 0.720494 10.4325 1.14832 9.99384 1.67933C9.57913 2.18683 9.27031 2.72058 8.98795 3.21933C8.76737 3.67433 8.54678 4.12058 8.31737 4.53183L8.22913 4.70683C6.06737 8.90683 3.95854 13.1768 2.01737 17.3768L1.96443 17.4293C1.77031 17.8843 1.5409 18.3568 1.32031 18.8643C1.17913 19.1706 1.03795 19.5031 0.896778 19.8706C0.515631 20.8329 0.393918 21.8771 0.543636 22.9003C0.693354 23.9234 1.10934 24.8902 1.75058 25.7054C2.39183 26.5206 3.23621 27.1561 4.20051 27.5491C5.1648 27.9421 6.21573 28.0792 7.24972 27.9468C8.24102 27.8174 9.19555 27.49 10.0556 26.9843C11.2027 26.3456 12.3056 25.4181 13.5409 24.0793C14.7762 25.4181 15.9056 26.3456 17.0262 26.9931C18.1038 27.6203 19.3242 27.9665 20.5732 27.9993C22.0197 28.0053 23.4196 27.4921 24.5143 26.5545C25.609 25.6168 26.3246 24.3181 26.5291 22.8981C26.7655 21.8776 26.6855 20.8102 26.2997 19.8356V19.8443ZM13.6291 21.2968C12.1115 19.3718 11.1232 17.6043 10.788 16.0906C10.649 15.5296 10.6191 14.9476 10.6997 14.3756C10.7615 13.9293 10.9291 13.5356 11.1585 13.2031C11.688 12.4418 12.6144 11.9693 13.6291 11.9693C14.111 11.9547 14.589 12.059 15.0202 12.2728C15.4514 12.4866 15.8224 12.8033 16.0997 13.1943C16.3291 13.5443 16.4968 13.9293 16.5497 14.3756C16.638 14.8831 16.6027 15.4693 16.4615 16.0906C16.1262 17.5781 15.138 19.3631 13.6291 21.2968ZM24.8703 22.5918C24.7701 23.3128 24.4811 23.9951 24.0321 24.5708C23.5831 25.1465 22.9899 25.5955 22.3115 25.8731C21.6409 26.1531 20.8997 26.2318 20.1762 26.1531C19.4703 26.0656 18.7644 25.8381 18.0409 25.4181C16.8396 24.6818 15.7594 23.7669 14.838 22.7056C16.6909 20.4306 17.8115 18.3568 18.235 16.5106C18.438 15.6356 18.4644 14.8481 18.3762 14.1218C18.266 13.4335 18.0072 12.7768 17.6174 12.1968C17.1723 11.5679 16.5783 11.0571 15.8874 10.7092C15.1966 10.3614 14.4302 10.1871 13.6556 10.2018C12.0232 10.2018 10.5674 10.9543 9.68501 12.1881C9.28781 12.7666 9.03111 13.4285 8.93501 14.1218C8.82031 14.8568 8.84678 15.6706 9.07619 16.5106C9.49972 18.3568 10.6468 20.4568 12.4732 22.7231C11.5675 23.8047 10.4847 24.7276 9.27031 25.4531C8.53795 25.8731 7.8409 26.0918 7.13501 26.1793C6.03726 26.3188 4.92838 26.0229 4.04939 25.3561C3.1704 24.6892 2.59235 23.7052 2.4409 22.6181C2.35266 21.9181 2.41443 21.2181 2.69678 20.4306C2.78501 20.1506 2.91737 19.8706 3.05854 19.5381C3.25266 19.0831 3.48207 18.6106 3.70266 18.1381L3.73795 18.0768C5.64384 13.9031 7.72619 9.64183 9.88795 5.46808L9.97619 5.29308C10.1968 4.87308 10.4174 4.42683 10.6468 4.00683C10.8762 3.56058 11.1232 3.13183 11.4409 2.78183C11.7158 2.45635 12.0594 2.19459 12.4474 2.01499C12.8354 1.8354 13.2583 1.74232 13.6865 1.74232C14.1146 1.74232 14.5376 1.8354 14.9256 2.01499C15.3136 2.19459 15.6571 2.45635 15.9321 2.78183C16.2409 3.13183 16.4968 3.56058 16.7262 4.00683C16.9468 4.42683 17.1674 4.88183 17.3968 5.29308L17.485 5.46808C19.638 9.64183 21.7203 13.9031 23.6615 18.0768L23.688 18.1031C23.9174 18.5581 24.1115 19.0656 24.3321 19.5031C24.4732 19.8443 24.6144 20.1156 24.7027 20.4043C24.8703 21.1918 24.9585 21.8918 24.8703 22.5918ZM37.1527 21.1043C36.4878 21.114 35.8292 20.975 35.2259 20.6978C34.6225 20.4207 34.0898 20.0123 33.6674 19.5031C32.718 18.418 32.2142 17.019 32.2556 15.5831C32.2411 14.1159 32.7612 12.6928 33.7203 11.5756C34.164 11.0599 34.7162 10.6469 35.3382 10.3657C35.9602 10.0845 36.6368 9.94195 37.3203 9.94808C37.9635 9.93062 38.6006 10.0757 39.1717 10.3695C39.7428 10.6634 40.2291 11.0965 40.585 11.6281L40.6732 10.2543H43.2497V20.8243H40.6644L40.5762 19.2843C40.2093 19.8519 39.7021 20.3171 39.103 20.6356C38.5038 20.9541 37.8324 21.1155 37.1527 21.1043ZM37.8232 18.5843C38.335 18.5843 38.785 18.4443 39.2085 18.1906C39.5968 17.9106 39.9144 17.5431 40.1615 17.0968C40.3821 16.6506 40.4968 16.1168 40.4968 15.5218C40.5312 15.0051 40.4297 14.4883 40.2024 14.022C39.975 13.5558 39.6295 13.156 39.1997 12.8618C38.7867 12.6067 38.3099 12.4714 37.8232 12.4714C37.3366 12.4714 36.8598 12.6067 36.4468 12.8618C36.0585 13.1418 35.7409 13.5093 35.4938 13.9556C35.2605 14.4477 35.1457 14.9869 35.1585 15.5306C35.1241 16.0474 35.2256 16.5641 35.4529 17.0304C35.6803 17.4967 36.0258 17.8964 36.4556 18.1906C36.8703 18.4443 37.3203 18.5843 37.8232 18.5843ZM47.6615 7.40183C47.6615 7.70808 47.6085 7.98808 47.4674 8.21558C47.3262 8.43433 47.1321 8.63558 46.8762 8.77558C46.6203 8.91558 46.3468 8.96808 46.0644 8.96808C45.7821 8.96808 45.4997 8.91558 45.2438 8.77558C45.0018 8.64198 44.7983 8.4492 44.6527 8.21558C44.516 7.96632 44.449 7.68538 44.4585 7.40183C44.4585 7.08683 44.5203 6.80683 44.6527 6.58808C44.7938 6.32558 44.9968 6.16808 45.2438 6.02808C45.4997 5.88808 45.7732 5.82683 46.0644 5.82683C46.3453 5.82041 46.623 5.88638 46.8705 6.01828C47.1179 6.15017 47.3266 6.34349 47.4762 6.57933C47.6046 6.83443 47.6682 7.11679 47.6615 7.40183ZM44.6615 20.7893V10.2368H47.4674V20.8068H44.6527L44.6615 20.7893ZM54.9674 13.0018V13.0368C54.835 12.9756 54.6585 12.9493 54.5262 12.9231C54.3497 12.8881 54.2085 12.8881 54.0409 12.8881C53.2556 12.8881 52.6644 13.1156 52.2762 13.5881C51.8527 14.0693 51.6585 14.7431 51.6585 15.6093V20.7981H48.8438V10.2281H51.4291L51.5174 11.8293C51.7997 11.2693 52.135 10.8493 52.6115 10.5343C53.0854 10.2283 53.6434 10.0754 54.2085 10.0968C54.4115 10.0968 54.6056 10.1143 54.7732 10.1493C54.8615 10.1756 54.9144 10.1756 54.9674 10.2018V13.0018ZM56.0968 20.7893V5.89683H58.9027V11.5843C59.2997 11.0768 59.7497 10.6831 60.3144 10.3768C61.2084 9.94216 62.224 9.81886 63.1973 10.0268C64.1707 10.2348 65.045 10.7619 65.6791 11.5231C66.6306 12.6104 67.1346 14.0129 67.0909 15.4518C67.1054 16.919 66.5853 18.3421 65.6262 19.4593C65.1825 19.975 64.6303 20.388 64.0083 20.6692C63.3863 20.9504 62.7097 21.093 62.0262 21.0868C61.383 21.1043 60.7459 20.9593 60.1748 20.6654C59.6037 20.3715 59.1174 19.9384 58.7615 19.4068L58.6732 20.7806L56.0968 20.8068V20.7893ZM61.5233 18.5843C62.0262 18.5843 62.4762 18.4443 62.8997 18.1906C63.288 17.9106 63.6056 17.5431 63.8527 17.0968C64.0821 16.6506 64.188 16.1168 64.188 15.5218C64.188 14.9356 64.0821 14.4018 63.8527 13.9556C63.6209 13.5253 63.2954 13.1516 62.8997 12.8618C62.4867 12.6067 62.0099 12.4714 61.5233 12.4714C61.0366 12.4714 60.5598 12.6067 60.1468 12.8618C59.7497 13.1418 59.4409 13.5093 59.185 13.9556C58.9517 14.4477 58.8369 14.9869 58.8497 15.5306C58.8153 16.0474 58.9168 16.5641 59.1441 17.0304C59.3715 17.4967 59.7169 17.8964 60.1468 18.1906C60.5615 18.4443 61.0115 18.5843 61.5233 18.5843ZM68.1497 20.7981V10.2281H70.735L70.8232 11.6018C71.1481 11.0752 71.609 10.6443 72.1581 10.3535C72.7073 10.0628 73.3248 9.92281 73.9468 9.94808C74.658 9.9359 75.3571 10.1319 75.9566 10.5117C76.5561 10.8914 77.0294 11.438 77.3174 12.0831C77.6262 12.7481 77.7938 13.5706 77.7938 14.4893V20.8243H74.9791V14.8568C74.9791 14.1218 74.8115 13.5443 74.4762 13.1156C74.1409 12.6956 73.6821 12.4681 73.0997 12.4681C72.6762 12.4681 72.3056 12.5556 71.9791 12.7481C71.6703 12.9493 71.4144 13.2031 71.2203 13.5618C71.024 13.9245 70.9267 14.3317 70.938 14.7431V20.7981H68.1497ZM79.1968 20.7981V5.88808H82.0115V11.5756C82.3927 11.0652 82.8887 10.6501 83.46 10.363C84.0313 10.0759 84.6622 9.92488 85.3027 9.92183C85.9675 9.91218 86.6261 10.0511 87.2294 10.3283C87.8328 10.6055 88.3655 11.0139 88.7879 11.5231C89.7326 12.6103 90.233 14.0086 90.1909 15.4431C90.2062 16.9104 89.686 18.3337 88.7262 19.4506C88.2825 19.9663 87.7303 20.3793 87.1083 20.6605C86.4863 20.9417 85.8097 21.0842 85.1262 21.0781C84.483 21.0955 83.8459 20.9505 83.2748 20.6566C82.7037 20.3627 82.2174 19.9296 81.8615 19.3981L81.7821 20.7718L79.1968 20.7981ZM84.6497 18.5843C85.1615 18.5843 85.6115 18.4443 86.0262 18.1906C86.4232 17.9106 86.7321 17.5431 86.988 17.0968C87.2085 16.6506 87.3232 16.1168 87.3232 15.5218C87.3576 15.0051 87.2562 14.4883 87.0289 14.022C86.8015 13.5558 86.456 13.156 86.0262 12.8618C85.6132 12.6067 85.1363 12.4714 84.6497 12.4714C84.1631 12.4714 83.6862 12.6067 83.2732 12.8618C82.885 13.1418 82.5674 13.5093 82.3203 13.9556C82.074 14.4433 81.9585 14.9857 81.985 15.5306C81.9506 16.0474 82.0521 16.5641 82.2794 17.0304C82.5068 17.4967 82.8522 17.8964 83.2821 18.1906C83.6968 18.4443 84.1203 18.5843 84.6497 18.5843Z" fill="#FF385C"/>
</g>
<defs>
<clipPath id="clip0">
<rect width="90" height="28" fill="white" transform="translate(0.5)"/>
</clipPath>
</defs>
</svg>
