<svg width="160" height="46" viewBox="0 0 160 46" fill="none" xmlns="http://www.w3.org/2000/svg">
<path d="M10.316 45.9535C9.90278 45.9535 9.49958 45.9489 9.08963 45.9407C8.2404 45.9309 7.39315 45.8655 6.55484 45.7449C5.77315 45.6258 5.01591 45.4041 4.30809 45.0873C3.60675 44.7731 2.96708 44.3611 2.41358 43.8671C1.85206 43.379 1.38457 42.8128 1.02963 42.191C0.670788 41.5652 0.422445 40.8944 0.293256 40.2019C0.153744 39.4579 0.0782619 38.7056 0.0674612 37.9515C0.0588633 37.6983 0.0476074 36.8555 0.0476074 36.8555V9.12905C0.0476074 9.12905 0.0595957 8.29919 0.067529 8.05538C0.0778706 7.30244 0.152914 6.55129 0.292009 5.80843C0.421436 5.11411 0.669971 4.44136 1.02901 3.81349C1.38264 3.19214 1.84753 2.62552 2.40567 2.1356C2.96318 1.64103 3.6049 1.22692 4.30742 0.908378C5.01362 0.592572 5.76943 0.372493 6.54954 0.255514C7.3906 0.133767 8.24079 0.0679456 9.09297 0.0586004L10.3166 0.0439453H149.684L150.922 0.0591885C151.767 0.0680694 152.609 0.133304 153.442 0.254337C154.23 0.372784 154.994 0.594399 155.708 0.911895C157.116 1.55384 158.261 2.56947 158.983 3.81642C159.337 4.43996 159.581 5.10721 159.709 5.79554C159.85 6.54449 159.929 7.30155 159.945 8.06066C159.949 8.40057 159.949 8.76569 159.949 9.12905C159.96 9.57915 159.96 10.0076 159.96 10.4395V35.5591C159.96 35.9952 159.96 36.4207 159.949 36.8496C159.949 37.24 159.949 37.5975 159.944 37.9655C159.928 38.7111 159.85 39.4546 159.712 40.1902C159.585 40.8876 159.338 41.5636 158.98 42.1946C158.622 42.8096 158.157 43.3709 157.602 43.8578C157.048 44.3544 156.407 44.7688 155.704 45.085C154.992 45.4043 154.23 45.6268 153.442 45.7449C152.604 45.8661 151.757 45.9316 150.908 45.9407C150.51 45.9489 150.094 45.9535 149.691 45.9535L148.221 45.9559L10.316 45.9535Z" fill="black"/>
</svg>
