<svg width="32" height="32" viewBox="0 0 32 32" fill="none" xmlns="http://www.w3.org/2000/svg">
<path d="M11.9997 13.3335H2.66634C2.31272 13.3335 1.97358 13.193 1.72353 12.943C1.47348 12.6929 1.33301 12.3538 1.33301 12.0002V2.66683C1.33301 2.31321 1.47348 1.97407 1.72353 1.72402C1.97358 1.47397 2.31272 1.3335 2.66634 1.3335H11.9997C12.3533 1.3335 12.6924 1.47397 12.9425 1.72402C13.1925 1.97407 13.333 2.31321 13.333 2.66683V12.0002C13.333 12.3538 13.1925 12.6929 12.9425 12.943C12.6924 13.193 12.3533 13.3335 11.9997 13.3335Z" fill="#8C30F5"/>
<path d="M11.9997 30.667H2.66634C2.31272 30.667 1.97358 30.5265 1.72353 30.2765C1.47348 30.0264 1.33301 29.6873 1.33301 29.3337V20.0003C1.33301 19.6467 1.47348 19.3076 1.72353 19.0575C1.97358 18.8075 2.31272 18.667 2.66634 18.667H11.9997C12.3533 18.667 12.6924 18.8075 12.9425 19.0575C13.1925 19.3076 13.333 19.6467 13.333 20.0003V29.3337C13.333 29.6873 13.1925 30.0264 12.9425 30.2765C12.6924 30.5265 12.3533 30.667 11.9997 30.667Z" fill="#8C30F5"/>
<path d="M17.333 2.66699H30.6663V5.33366H17.333V2.66699Z" fill="#2EC5CE"/>
<path d="M30.6663 20H17.333V22.6667H30.6663V20Z" fill="#2EC5CE"/>
<path d="M30.6663 26.667H17.333V29.3337H30.6663V26.667Z" fill="#D6B1FF"/>
<path d="M30.6663 9.3335H17.333V12.0002H30.6663V9.3335Z" fill="#D6B1FF"/>
</svg>
