<svg width="85" height="28" viewBox="0 0 85 28" fill="none" xmlns="http://www.w3.org/2000/svg">
<g clip-path="url(#clip0)">
<path d="M36.2461 14.3591C36.2461 18.2457 33.1609 21.1096 29.3747 21.1096C25.5886 21.1096 22.5034 18.2457 22.5034 14.3591C22.5034 10.4452 25.5886 7.6087 29.3747 7.6087C33.1609 7.6087 36.2461 10.4452 36.2461 14.3591ZM33.2381 14.3591C33.2381 11.9304 31.45 10.2687 29.3747 10.2687C27.2994 10.2687 25.5114 11.9304 25.5114 14.3591C25.5114 16.7635 27.2994 18.4496 29.3747 18.4496C31.45 18.4496 33.2381 16.7604 33.2381 14.3591Z" fill="#EA4335"/>
<path d="M51.0698 14.3591C51.0698 18.2457 47.9846 21.1096 44.1985 21.1096C40.4123 21.1096 37.3271 18.2457 37.3271 14.3591C37.3271 10.4483 40.4123 7.6087 44.1985 7.6087C47.9846 7.6087 51.0698 10.4452 51.0698 14.3591ZM48.0619 14.3591C48.0619 11.9304 46.2738 10.2687 44.1985 10.2687C42.1232 10.2687 40.3351 11.9304 40.3351 14.3591C40.3351 16.7635 42.1232 18.4496 44.1985 18.4496C46.2738 18.4496 48.0619 16.7604 48.0619 14.3591Z" fill="#FBBC05"/>
<path d="M65.2757 8.01652V20.1357C65.2757 25.1209 62.2925 27.157 58.7657 27.157C55.4459 27.157 53.4478 24.9687 52.6942 23.1791L55.3131 22.1048C55.7794 23.2035 56.922 24.5 58.7626 24.5C61.0201 24.5 62.4191 23.1274 62.4191 20.5435V19.5726H62.3141C61.6409 20.3913 60.3438 21.1065 58.707 21.1065C55.2822 21.1065 52.1445 18.1665 52.1445 14.3835C52.1445 10.573 55.2822 7.6087 58.707 7.6087C60.3407 7.6087 61.6378 8.32391 62.3141 9.11826H62.4191V8.01957H65.2757V8.01652ZM62.6322 14.3835C62.6322 12.0065 61.0232 10.2687 58.9757 10.2687C56.9004 10.2687 55.1617 12.0065 55.1617 14.3835C55.1617 16.7361 56.9004 18.4496 58.9757 18.4496C61.0232 18.4496 62.6322 16.7361 62.6322 14.3835Z" fill="#4285F4"/>
<path d="M69.9851 0.913044V20.6957H67.0513V0.913044H69.9851Z" fill="#34A853"/>
<path d="M81.4181 16.5809L83.7528 18.1148C82.9993 19.2135 81.1834 21.1065 78.0457 21.1065C74.1546 21.1065 71.2485 18.1422 71.2485 14.3561C71.2485 10.3417 74.1793 7.60565 77.7091 7.60565C81.2637 7.60565 83.0024 10.3935 83.5706 11.9L83.8825 12.667L74.7259 16.4043C75.4269 17.7587 76.5171 18.4496 78.0457 18.4496C79.5775 18.4496 80.6399 17.707 81.4181 16.5809ZM74.2318 14.1522L80.3527 11.6474C80.016 10.8043 79.0031 10.217 77.811 10.217C76.2824 10.217 74.1546 11.547 74.2318 14.1522Z" fill="#EA4335"/>
<path d="M11.3985 12.603V9.73913H21.1913C21.2871 10.2383 21.3365 10.8287 21.3365 11.4678C21.3365 13.6165 20.7404 16.2735 18.8196 18.1665C16.9512 20.0839 14.564 21.1065 11.4016 21.1065C5.54015 21.1065 0.611328 16.4013 0.611328 10.6248C0.611328 4.84826 5.54015 0.143044 11.4016 0.143044C14.6443 0.143044 16.9543 1.39696 18.6899 3.0313L16.6393 5.05217C15.3947 3.90174 13.7085 3.00696 11.3985 3.00696C7.11824 3.00696 3.77059 6.40652 3.77059 10.6248C3.77059 14.843 7.11824 18.2426 11.3985 18.2426C14.1749 18.2426 15.756 17.1439 16.769 16.1457C17.5904 15.3361 18.1309 14.1796 18.344 12.6L11.3985 12.603Z" fill="#4285F4"/>
</g>
<defs>
<clipPath id="clip0">
<rect width="84" height="28" fill="white" transform="translate(0.5)"/>
</clipPath>
</defs>
</svg>
