<svg width="162" height="48" viewBox="0 0 162 48" fill="none" xmlns="http://www.w3.org/2000/svg">
<path d="M156 0.959999C157.336 0.961543 158.617 1.49307 159.562 2.43797C160.507 3.38287 161.038 4.66397 161.04 6.00021V42C161.038 43.3363 160.507 44.6174 159.562 45.5623C158.617 46.5071 157.336 47.0387 156 47.0403H6.0004C4.66414 47.0387 3.38307 46.5072 2.43821 45.5623C1.49336 44.6174 0.961899 43.3363 0.960422 42V6.00021C0.961877 4.66395 1.49333 3.38284 2.43819 2.43794C3.38305 1.49303 4.66414 0.961518 6.0004 0.959999H156ZM156 0.000244141H6.0004C4.41054 0.00489784 2.88712 0.63853 1.76292 1.76274C0.638713 2.88694 0.00508094 4.41035 0.000427246 6.00021L0.000427246 42C0.00508094 43.5899 0.638713 45.1133 1.76292 46.2375C2.88712 47.3617 4.41054 47.9953 6.0004 48H156C157.59 47.9953 159.113 47.3617 160.237 46.2375C161.361 45.1133 161.995 43.5899 162 42V6.00021C161.995 4.41035 161.361 2.88694 160.237 1.76274C159.113 0.63853 157.59 0.00489784 156 0.000244141Z" fill="#A6A6A6"/>
</svg>
